<?xml version="1.0" standalone="no"?>
<!DOCTYPE svg PUBLIC "-//W3C//DTD SVG 20010904//EN"
 "http://www.w3.org/TR/2001/REC-SVG-20010904/DTD/svg10.dtd">
<svg version="1.0" xmlns="http://www.w3.org/2000/svg"
 width="1280.000000pt" height="221.000000pt" viewBox="0 0 1280.000000 221.000000"
 preserveAspectRatio="xMidYMid meet">

<g transform="translate(0.000000,221.000000) scale(0.100000,-0.100000)"
fill="#000000" stroke="none">
<path d="M69 2190 c-75 -40 -70 32 -67 -1065 3 -1086 -2 -1009 70 -1046 27
-14 58 -19 113 -19 66 0 81 -3 109 -25 32 -25 36 -25 217 -25 210 0 236 8 266
78 l16 37 14 -32 13 -33 108 0 c106 0 109 -1 120 -25 l12 -25 183 0 183 0 30
28 c17 16 33 34 35 41 3 9 11 9 34 -3 20 -11 57 -16 108 -16 68 0 83 -3 111
-25 l33 -25 491 0 492 0 39 41 c39 40 40 40 70 25 19 -11 57 -16 106 -16 66 0
81 -3 109 -25 33 -25 35 -25 230 -25 168 0 202 3 227 17 56 33 59 58 59 448
l0 355 246 0 c255 0 271 2 306 44 17 20 17 5 18 -351 0 -242 4 -380 11 -395
22 -47 58 -63 154 -67 77 -3 94 -7 118 -27 l29 -24 493 0 493 0 29 27 c16 16
32 35 35 43 4 12 10 12 40 -3 25 -12 61 -17 115 -17 72 0 82 -2 103 -25 l23
-25 495 0 495 0 33 25 c29 22 43 25 113 25 69 0 85 -3 117 -25 36 -25 40 -25
239 -25 l203 0 29 27 c16 16 32 34 34 42 4 11 10 11 36 -3 22 -11 57 -16 109
-16 67 0 81 -3 110 -25 l33 -25 317 0 c258 0 330 3 383 16 82 20 176 64 236
109 25 19 47 35 50 35 2 0 14 -18 25 -40 28 -55 62 -70 160 -70 72 0 84 -3
108 -25 27 -25 27 -25 230 -25 l204 0 32 33 c18 17 35 38 37 46 4 10 12 9 39
-8 28 -17 51 -21 113 -21 68 0 83 -3 111 -25 33 -25 35 -25 232 -25 l200 0 33
28 c24 20 34 38 37 67 4 26 -37 289 -121 770 -69 402 -128 738 -131 748 -5 15
3 17 82 17 76 0 91 -3 110 -21 13 -12 38 -24 56 -28 l33 -7 5 -724 c3 -399 9
-732 13 -740 21 -40 61 -55 152 -59 77 -3 94 -7 118 -27 28 -24 32 -24 234
-24 l205 0 34 34 c29 29 34 41 35 82 l0 49 15 -35 c25 -59 56 -75 159 -79 77
-3 94 -7 118 -27 28 -24 32 -24 224 -24 215 0 241 6 266 62 14 33 14 33 52 8
24 -16 47 -20 118 -20 50 0 87 -4 87 -10 0 -5 13 -16 30 -25 23 -12 68 -15
221 -15 173 0 195 2 224 20 57 35 58 61 15 313 -320 1866 -298 1759 -358 1787
-15 7 -63 15 -107 18 -56 3 -83 9 -89 19 -20 36 -69 43 -304 43 -221 0 -230
-1 -263 -23 -19 -12 -40 -37 -48 -54 l-14 -31 -27 20 c-20 15 -49 21 -111 25
-60 4 -90 11 -104 23 -45 40 -49 40 -615 40 -603 0 -586 2 -629 -59 -12 -16
-21 -37 -21 -47 0 -15 -3 -15 -23 4 -31 29 -78 42 -153 42 -44 0 -65 5 -75 16
-33 40 -60 44 -296 44 -208 0 -231 -2 -260 -20 -18 -10 -39 -30 -48 -44 -10
-15 -37 -138 -66 -298 -51 -284 -57 -311 -58 -267 -1 15 -10 58 -22 95 -71
235 -277 418 -515 459 -22 4 -79 21 -129 38 l-90 32 -345 3 c-332 3 -346 2
-378 -18 -18 -11 -40 -33 -50 -50 -18 -28 -20 -29 -41 -14 -13 10 -54 18 -104
22 -69 4 -88 10 -121 34 l-39 28 -191 0 c-169 0 -194 -2 -219 -19 -66 -43 -62
14 -65 -843 l-2 -778 -75 0 c-42 0 -75 4 -75 10 0 5 -12 18 -27 27 -21 14 -56
19 -162 23 l-136 5 -2 710 c-2 638 -4 713 -18 741 -22 42 -54 55 -149 62 -59
4 -84 10 -98 24 -33 33 -65 38 -249 38 -201 0 -221 -5 -262 -65 -22 -33 -24
-34 -46 -19 -14 10 -54 18 -104 21 -60 4 -87 10 -102 24 -42 37 -67 39 -541
39 -508 0 -501 1 -543 -59 -12 -16 -21 -42 -21 -57 l0 -28 -27 32 c-31 37 -76
51 -164 52 -39 0 -61 5 -70 16 -36 43 -45 44 -541 44 -448 0 -475 -1 -504 -19
-17 -11 -38 -33 -45 -50 -16 -36 -17 -36 -47 -15 -15 10 -54 18 -105 21 -60 4
-87 10 -102 24 -42 37 -67 39 -541 39 -515 0 -503 1 -544 -65 -21 -34 -23 -35
-41 -19 -12 11 -44 18 -105 22 -69 4 -92 9 -111 26 -36 31 -53 34 -230 35
-186 1 -214 -6 -255 -70 l-25 -38 -11 24 c-11 24 -15 25 -112 25 l-101 0 -10
30 -11 30 -181 0 c-158 -1 -187 -3 -218 -20z m541 -622 c123 -288 227 -530
232 -538 4 -8 5 225 2 523 l-7 537 156 0 157 0 0 -955 0 -955 -127 0 -128 0
-234 500 c-129 275 -235 499 -237 497 -1 -1 1 -178 6 -392 5 -215 9 -438 10
-497 l0 -108 -160 0 -160 0 0 955 0 955 133 0 134 0 223 -522z m1870 357 l0
-165 -285 0 -285 0 0 -215 0 -215 283 0 284 0 6 -122 c4 -66 7 -141 7 -165 l0
-43 -290 0 -290 0 0 -240 0 -240 288 -2 287 -3 3 -167 2 -168 -455 0 -455 0 0
955 0 955 450 0 450 0 0 -165z m1345 0 l0 -160 -287 -3 -288 -2 0 -215 0 -215
288 -2 287 -3 3 -162 2 -163 -290 0 -290 0 0 -410 0 -410 -165 0 -165 0 0 955
0 955 453 -2 452 -3 0 -160z m1365 0 l0 -165 -285 0 -285 0 0 -215 0 -215 285
0 285 0 0 -165 0 -165 -285 0 -285 0 0 -240 0 -240 285 0 285 0 0 -170 0 -170
-449 0 c-248 0 -452 4 -455 9 -3 5 -3 434 1 955 l6 946 449 0 448 0 0 -165z
m770 -620 l0 -785 288 -2 287 -3 0 -165 0 -165 -457 -3 -458 -2 0 623 c0 343
3 773 7 955 l6 332 164 0 163 0 0 -785z m1270 -170 l0 -955 -165 0 -165 0 0
955 0 955 165 0 165 0 0 -955z m1105 940 c134 -35 243 -110 318 -222 60 -88
87 -167 94 -273 9 -141 -36 -266 -133 -370 l-42 -45 45 -60 c120 -157 151
-352 87 -543 -41 -123 -153 -253 -271 -314 -119 -63 -156 -68 -482 -68 l-291
0 0 909 c0 499 3 929 6 955 l7 46 301 0 c238 0 314 -3 361 -15z m1399 7 c6
-10 326 -1856 326 -1882 0 -20 -5 -20 -162 -18 l-163 3 -14 103 -14 102 -187
0 -188 0 -10 -62 c-6 -35 -14 -82 -17 -105 l-7 -43 -165 0 -165 0 6 27 c14 69
336 1863 336 1872 0 13 416 16 424 3z m1521 -157 l0 -160 -187 -3 -188 -2 7
-790 6 -790 -169 2 -169 3 -3 787 -2 788 -183 2 -182 3 -3 60 c-2 33 -1 106 3
163 l7 102 531 -2 532 -3 0 -160z m869 138 c3 -16 75 -433 161 -928 85 -495
158 -912 161 -928 l6 -27 -166 0 -165 0 -6 33 c-9 57 -25 162 -25 170 0 4 -85
7 -189 7 l-188 0 -13 -92 c-7 -51 -15 -98 -17 -105 -4 -10 -44 -13 -162 -13
-87 0 -160 2 -162 5 -5 4 326 1861 336 1893 3 9 55 12 214 12 l209 0 6 -27z
m-7954 -579 l0 -177 -22 28 c-30 38 -76 55 -153 55 -53 0 -70 4 -88 21 -35 34
-61 39 -188 39 l-119 0 0 70 0 70 250 0 249 0 33 34 c18 19 34 35 36 35 1 1 2
-78 2 -175z m-1370 0 l0 -136 -25 16 c-17 11 -47 16 -103 16 -68 0 -82 3 -98
21 -34 39 -76 49 -199 49 l-115 0 0 70 0 70 243 0 c191 1 247 4 267 15 14 8
26 14 28 15 1 0 2 -61 2 -136z m2710 0 l0 -126 -22 7 c-13 5 -62 10 -111 12
-71 4 -89 8 -97 22 -20 38 -71 51 -199 51 l-122 0 3 68 3 67 252 5 c138 3 255
8 259 13 4 4 13 7 21 7 10 0 13 -28 13 -126z m5970 91 c0 -19 -239 -1345 -244
-1360 -3 -5 -5 302 -5 683 l-1 692 125 0 c106 0 125 -2 125 -15z m-2463 -460
c-14 -73 -22 -80 -46 -41 -13 21 -11 28 20 76 18 28 35 48 36 43 2 -4 -3 -39
-10 -78z m-6221 -572 c-3 -3 -15 2 -28 11 -15 11 -45 16 -98 16 -68 1 -78 3
-110 30 -34 30 -34 30 -167 30 l-133 0 0 100 0 100 248 0 c199 0 252 3 268 14
19 14 19 11 22 -141 1 -86 0 -158 -2 -160z m2704 151 l0 -155 -22 15 c-16 11
-46 16 -99 16 -71 0 -79 2 -109 30 -31 29 -32 29 -168 32 l-137 3 0 95 0 95
250 3 c146 1 253 6 259 12 6 6 14 10 18 10 4 0 8 -70 8 -156z"/>
<path d="M8000 1545 l0 -215 113 0 c144 0 180 11 238 69 72 71 87 148 45 236
-48 103 -97 125 -271 125 l-125 0 0 -215z"/>
<path d="M7997 993 c-4 -3 -7 -114 -7 -246 l0 -239 118 4 c133 5 176 20 232
84 45 52 60 93 60 166 0 51 -6 73 -29 113 -31 54 -87 99 -142 115 -38 11 -222
14 -232 3z"/>
<path d="M9517 1510 c-7 -32 -128 -802 -127 -812 0 -5 59 -8 131 -8 l131 0 -6
28 c-3 15 -30 200 -61 412 -31 212 -57 390 -59 395 -2 6 -6 -1 -9 -15z"/>
<path d="M11896 1488 c-6 -47 -106 -680 -121 -765 l-6 -33 131 0 c76 0 130 4
130 10 0 18 -121 834 -124 837 -2 2 -6 -20 -10 -49z"/>
</g>
</svg>
